<?xml version="1.0" encoding="iso-8859-1"?>
<!-- Generator: Adobe Illustrator 19.0.0, SVG Export Plug-In . SVG Version: 6.00 Build 0)  -->
<svg version="1.1" id="Capa_1" xmlns="http://www.w3.org/2000/svg" xmlns:xlink="http://www.w3.org/1999/xlink" x="0px" y="0px"
	 viewBox="0 0 512 512" style="enable-background:new 0 0 512 512;" xml:space="preserve">
<g>
	<g>
		<path d="M426.667,170.667c-22.563,0-44.656,4.25-65.667,12.646l-41.27,16.514c-2.368-2.684-4.867-5.184-7.551-7.552L328.688,151
			c8.385-20.958,12.646-43.063,12.646-65.667C341.333,38.271,303.052,0,256,0s-85.333,38.271-85.333,85.333
			c0,22.604,4.26,44.708,12.646,65.667l16.508,41.275c-2.684,2.369-5.182,4.867-7.549,7.551L151,183.292
			c-21.01-8.375-43.104-12.625-65.667-12.625C38.281,170.667,0,208.938,0,256s38.281,85.333,85.333,85.333
			c22.563,0,44.656-4.25,65.667-12.646l41.27-16.514c2.368,2.684,4.867,5.184,7.551,7.552L183.313,361
			c-8.385,20.958-12.646,43.063-12.646,65.667C170.667,473.729,208.948,512,256,512s85.333-38.271,85.333-85.333
			c0-22.604-4.26-44.708-12.646-65.667l-16.508-41.275c2.684-2.369,5.182-4.867,7.549-7.551L361,328.708
			c21.01,8.375,43.104,12.625,65.667,12.625C473.719,341.333,512,303.063,512,256S473.719,170.667,426.667,170.667z M85.333,298.667
			c-23.531,0-42.667-19.146-42.667-42.667c0-5.896,4.771-10.667,10.667-10.667C59.229,245.333,64,250.104,64,256
			c0,11.771,9.573,21.333,21.333,21.333C91.229,277.333,96,282.104,96,288S91.229,298.667,85.333,298.667z M256,42.667
			c5.896,0,10.667,4.771,10.667,10.667C266.667,59.229,261.896,64,256,64c-11.76,0-21.333,9.563-21.333,21.333
			C234.667,91.229,229.896,96,224,96s-10.667-4.771-10.667-10.667C213.333,61.813,232.469,42.667,256,42.667z M256,469.333
			c-5.896,0-10.667-4.771-10.667-10.667S250.104,448,256,448c11.76,0,21.333-9.563,21.333-21.333
			c0-5.896,4.771-10.667,10.667-10.667s10.667,4.771,10.667,10.667C298.667,450.188,279.531,469.333,256,469.333z M256,309.333
			c-29.456,0-53.333-23.879-53.333-53.333c0-29.456,23.878-53.333,53.333-53.333s53.333,23.878,53.333,53.333
			C309.333,285.454,285.456,309.333,256,309.333z M458.667,266.667c-5.896,0-10.667-4.771-10.667-10.667
			c0-11.771-9.573-21.333-21.333-21.333c-5.896,0-10.667-4.771-10.667-10.667s4.771-10.667,10.667-10.667
			c23.531,0,42.667,19.146,42.667,42.667C469.333,261.896,464.563,266.667,458.667,266.667z"/>
	</g>
</g>
<g>
</g>
<g>
</g>
<g>
</g>
<g>
</g>
<g>
</g>
<g>
</g>
<g>
</g>
<g>
</g>
<g>
</g>
<g>
</g>
<g>
</g>
<g>
</g>
<g>
</g>
<g>
</g>
<g>
</g>
</svg>
