<?xml version="1.0" encoding="iso-8859-1"?>
<!-- Generator: Adobe Illustrator 16.0.0, SVG Export Plug-In . SVG Version: 6.00 Build 0)  -->
<!DOCTYPE svg PUBLIC "-//W3C//DTD SVG 1.1//EN" "http://www.w3.org/Graphics/SVG/1.1/DTD/svg11.dtd">
<svg version="1.1" id="Capa_1" xmlns="http://www.w3.org/2000/svg" xmlns:xlink="http://www.w3.org/1999/xlink" x="0px" y="0px"
	 width="606.268px" height="606.268px" viewBox="0 0 606.268 606.268" style="enable-background:new 0 0 606.268 606.268;"
	 xml:space="preserve">
<g>
	<g>
		<path d="M40.492,479.061c12.688,12.735,27.479,22.755,43.964,29.783c17.135,7.305,35.261,11.008,53.878,11.008h326.525
			c19.084,0,37.655-3.798,55.198-11.286c16.889-7.21,32.031-17.493,45.008-30.562c12.822-12.915,22.874-27.898,29.877-44.536
			c7.316-17.381,10.957-35.765,10.821-54.643c-0.111-15.405-2.72-30.549-7.753-45.008c-4.868-13.985-11.908-27.061-20.923-38.864
			c-8.902-11.658-19.525-21.807-31.574-30.165c-5.659-3.927-11.575-7.417-17.707-10.451c0.151-2.825,0.227-5.653,0.227-8.48
			c0-21.505-4.222-42.391-12.547-62.074c-8.032-18.991-19.523-36.038-34.152-50.667c-14.629-14.629-31.676-26.12-50.667-34.152
			c-19.685-8.326-40.569-12.547-62.074-12.547c-26.931,0-53.566,6.856-77.028,19.827c-15.181,8.393-28.937,19.277-40.637,32.067
			c-15.768-6.682-32.702-10.407-50-10.92c-1.356-0.041-2.735-0.062-4.099-0.062c-18.524-0.001-36.579,3.659-53.666,10.881
			c-16.413,6.937-31.197,16.838-43.943,29.43c-12.772,12.617-22.861,27.306-29.985,43.659
			c-7.433,17.065-11.286,35.156-11.451,53.769c-0.019,2.129,0.011,4.261,0.09,6.391C43.209,281.937,30.685,295.251,21.1,310.66
			C7.718,332.173,0.595,356.979,0.501,382.396c-0.068,18.411,3.544,36.339,10.738,53.284
			C18.117,451.887,27.959,466.481,40.492,479.061z M94.027,299.411c5.904-3.075,9.255-9.581,8.086-16.134
			c-1.031-5.781-1.546-11.741-1.493-17.83c0.464-52.505,44.016-95.282,96.201-95.277c0.94,0,1.891,0.014,2.837,0.042
			c18.539,0.549,35.75,6.358,50.216,15.975c2.64,1.755,5.631,2.603,8.581,2.603c4.893,0,9.674-2.333,12.554-6.731
			c20.821-31.792,56.742-52.801,97.584-52.801c64.397,0,116.601,52.203,116.601,116.601c0,7.964-0.811,15.736-2.34,23.248
			c-1.569,7.698,3.029,15.361,10.562,17.593c39.972,11.845,69.195,48.692,69.51,92.435c0.387,53.832-44.231,97.88-98.065,97.88
			H138.335c-51.951,0-95.188-42.505-94.994-94.456C43.475,346.396,64.006,315.048,94.027,299.411z"/>
		<path d="M464.859,520.352H138.334c-18.685,0-36.878-3.717-54.074-11.048c-16.545-7.055-31.39-17.11-44.123-29.891
			c-12.578-12.625-22.456-27.272-29.359-43.537c-7.22-17.007-10.846-35.001-10.777-53.481c0.095-25.511,7.244-50.407,20.675-71.998
			c9.591-15.419,21.933-28.602,36.688-39.188c-0.072-2.037-0.099-4.103-0.081-6.145c0.165-18.68,4.032-36.836,11.492-53.964
			c7.15-16.412,17.275-31.153,30.092-43.814c12.792-12.637,27.629-22.574,44.1-29.535c17.145-7.247,35.264-10.921,53.853-10.921
			c1.376,0,2.761,0.021,4.122,0.062c17.232,0.511,34.003,4.151,49.854,10.822c11.775-12.816,25.408-23.549,40.526-31.907
			c23.536-13.012,50.255-19.89,77.27-19.89c21.572,0,42.522,4.235,62.269,12.587c19.052,8.058,36.151,19.584,50.826,34.259
			c14.676,14.676,26.202,31.776,34.26,50.826c8.352,19.746,12.586,40.696,12.586,62.269c0,2.721-0.07,5.47-0.21,8.178
			c6.038,3.006,11.916,6.484,17.476,10.342c12.092,8.388,22.753,18.573,31.687,30.272c9.048,11.847,16.113,24.97,20.998,39.003
			c5.051,14.51,7.669,29.707,7.78,45.168c0.136,18.946-3.518,37.397-10.86,54.841c-7.027,16.696-17.115,31.733-29.983,44.694
			c-13.023,13.116-28.219,23.435-45.166,30.67C502.647,516.541,484.01,520.352,464.859,520.352z M196.829,127.829
			c-18.462,0-36.45,3.648-53.471,10.842c-16.354,6.912-31.085,16.778-43.787,29.325c-12.727,12.572-22.779,27.208-29.878,43.503
			c-7.407,17.004-11.245,35.029-11.409,53.574c-0.019,2.117,0.011,4.259,0.089,6.368l0.01,0.269l-0.219,0.156
			c-14.744,10.536-27.071,23.678-36.639,39.059c-13.333,21.435-20.43,46.149-20.523,71.475
			c-0.068,18.344,3.531,36.205,10.698,53.087c6.853,16.146,16.659,30.688,29.147,43.223c12.641,12.688,27.38,22.672,43.807,29.676
			c17.071,7.277,35.132,10.968,53.682,10.968h326.525c19.015,0,37.52-3.784,55.002-11.246c16.828-7.184,31.917-17.431,44.85-30.455
			c12.776-12.869,22.793-27.8,29.771-44.378c7.29-17.317,10.918-35.635,10.782-54.444c-0.111-15.352-2.71-30.44-7.726-44.848
			c-4.85-13.933-11.863-26.962-20.848-38.725c-8.87-11.616-19.456-21.729-31.462-30.058c-5.609-3.892-11.546-7.396-17.644-10.413
			l-0.295-0.146l0.018-0.329c0.149-2.796,0.226-5.64,0.226-8.453c0-21.438-4.208-42.257-12.508-61.879
			c-8.006-18.93-19.461-35.924-34.045-50.508c-14.583-14.583-31.576-26.038-50.508-34.045c-19.623-8.3-40.442-12.508-61.88-12.508
			c-26.846,0-53.397,6.834-76.786,19.765c-15.125,8.362-28.754,19.117-40.51,31.967l-0.239,0.261l-0.326-0.138
			c-15.832-6.709-32.594-10.37-49.819-10.881C199.562,127.85,198.188,127.829,196.829,127.829z M464.859,477.513H138.335
			c-25.548,0-49.644-10.062-67.848-28.334c-17.921-17.988-27.739-41.649-27.646-66.624c0.131-35.256,19.656-67.284,50.956-83.587
			c5.806-3.024,8.95-9.294,7.825-15.603c-1.049-5.878-1.554-11.909-1.5-17.922c0.226-25.485,10.472-49.521,28.852-67.678
			c18.338-18.117,42.432-28.095,67.841-28.095h0.008c0.945,0,1.901,0.014,2.852,0.043c18.023,0.534,35.478,6.086,50.478,16.058
			c2.479,1.648,5.351,2.52,8.304,2.52c4.932,0,9.468-2.432,12.136-6.505c21.746-33.204,58.382-53.027,98.002-53.027
			c64.569,0,117.101,52.531,117.101,117.101c0,7.833-0.791,15.688-2.35,23.348c-1.508,7.396,2.979,14.87,10.213,17.014
			c19.659,5.826,37.374,18.054,49.882,34.432c12.922,16.92,19.833,37.142,19.986,58.479c0.186,25.887-9.902,50.406-28.406,69.044
			C516.233,467.093,491.317,477.513,464.859,477.513z M196.813,170.669c-25.145,0-48.988,9.875-67.139,27.806
			c-18.19,17.971-28.331,41.756-28.554,66.976c-0.053,5.952,0.447,11.92,1.485,17.738c1.203,6.741-2.151,13.438-8.347,16.666
			c-30.969,16.131-50.288,47.82-50.417,82.704c-0.092,24.707,9.623,48.116,27.355,65.914c18.015,18.082,41.858,28.04,67.139,28.04
			h326.524c26.189,0,50.854-10.314,69.449-29.045c18.315-18.446,28.3-42.714,28.116-68.331
			c-0.152-21.119-6.992-41.134-19.781-57.879c-12.38-16.212-29.914-28.314-49.371-34.08c-7.728-2.29-12.52-10.272-10.909-18.172
			c1.546-7.594,2.33-15.382,2.33-23.148c0-64.018-52.082-116.101-116.101-116.101c-39.282,0-75.605,19.654-97.166,52.575
			c-2.853,4.356-7.703,6.958-12.973,6.958c-3.151,0-6.214-0.929-8.857-2.687c-14.843-9.868-32.117-15.363-49.954-15.891
			c-0.941-0.028-1.887-0.042-2.822-0.042H196.813z"/>
	</g>
	<g>
		<path d="M247.701,411.907c4.183,4.183,9.664,6.274,15.146,6.274c5.482,0,10.964-2.092,15.146-6.274l129.244-129.244
			c8.365-8.366,8.365-21.927,0-30.293c-8.364-8.365-21.927-8.365-30.293,0L262.847,366.469l-43.88-43.88
			c-8.365-8.365-21.928-8.364-30.293,0c-8.365,8.365-8.365,21.927,0,30.293L247.701,411.907z"/>
		<path d="M262.847,418.682c-5.855,0-11.359-2.28-15.5-6.421l-59.027-59.025c-8.546-8.547-8.546-22.454,0-31
			c4.141-4.14,9.646-6.42,15.5-6.42c5.855,0,11.36,2.28,15.5,6.42l43.527,43.526l113.744-113.745c4.141-4.14,9.646-6.42,15.5-6.42
			c5.855,0,11.36,2.28,15.5,6.42c8.546,8.547,8.546,22.453,0,31L278.347,412.261C274.207,416.401,268.702,418.682,262.847,418.682z
			 M203.821,316.815c-5.588,0-10.842,2.176-14.793,6.127c-8.156,8.156-8.156,21.429,0,29.586l59.027,59.025
			c3.952,3.952,9.205,6.128,14.793,6.128s10.841-2.176,14.793-6.128L406.884,282.31c8.156-8.157,8.156-21.429,0-29.586
			c-3.951-3.951-9.204-6.127-14.793-6.127c-5.588,0-10.841,2.176-14.793,6.127L262.847,367.176l-44.234-44.233
			C214.663,318.991,209.409,316.815,203.821,316.815z"/>
	</g>
</g>
<g>
</g>
<g>
</g>
<g>
</g>
<g>
</g>
<g>
</g>
<g>
</g>
<g>
</g>
<g>
</g>
<g>
</g>
<g>
</g>
<g>
</g>
<g>
</g>
<g>
</g>
<g>
</g>
<g>
</g>
</svg>
