<svg height="512pt" viewBox="0 -73 512 512" width="512pt" xmlns="http://www.w3.org/2000/svg"><path d="m83.253906 365c4.375 0 8.460938-1.730469 11.5-4.878906l22.726563-23.507813c5.996093-6.203125 6.046875-15.925781.117187-22.132812-15.632812-16.367188-28.132812-35.203125-37.148437-55.980469-10.449219-24.074219-15.75-49.644531-15.75-76s5.296875-51.925781 15.746093-76c9.019532-20.777344 21.519532-39.613281 37.148438-55.980469 5.929688-6.207031 5.878906-15.929687-.117188-22.132812l-22.722656-23.507813c-3.042968-3.148437-7.125-4.878906-11.511718-4.878906-4.332032.00390625-8.546876 1.796875-11.5625 4.921875-17.175782 17.804687-31.632813 37.933594-42.976563 59.820313-1.902344 3.675781-.46875 8.203124 3.210937 10.109374 3.679688 1.90625 8.203126.46875 10.109376-3.210937 10.671874-20.601563 24.285156-39.542969 40.453124-56.304687.402344-.417969 1.082032-.457032 1.492188-.035157l22.726562 23.511719c.371094.382812.394532.988281.050782 1.34375-16.855469 17.652344-30.335938 37.964844-40.058594 60.371094-11.273438 25.972656-16.988281 53.550781-16.988281 81.972656s5.714843 56 16.988281 81.972656c9.722656 22.40625 23.203125 42.714844 40.0625 60.367188.339844.359375.316406.964844-.054688 1.347656 0 0-22.652343 23.433594-22.726562 23.511719-.410156.425781-1.089844.382812-1.492188-.035157-20.074218-20.8125-36.097656-44.824218-47.621093-71.375-13.175781-30.359374-19.855469-62.585937-19.855469-95.789062 0-28.261719 4.882812-55.964844 14.507812-82.34375 1.421876-3.890625-.582031-8.199219-4.472656-9.617188-3.890625-1.421874-8.195312.582032-9.617187 4.472657-10.230469 28.03125-15.417969 57.46875-15.417969 87.488281 0 35.269531 7.097656 69.507812 21.097656 101.761719 12.238282 28.199219 29.257813 53.710937 50.582032 75.816406 3.015624 3.125 7.230468 4.917969 11.574218 4.921875zm0 0"/><path d="m152.382812 293.46875c4.386719 0 8.480469-1.734375 11.527344-4.890625l22.761719-23.542969c5.785156-5.980468 6.011719-15.511718.515625-21.695312-14.886719-16.753906-23.085938-38.363282-23.085938-60.839844s8.199219-44.082031 23.089844-60.84375c5.492188-6.179688 5.265625-15.710938-.519531-21.691406l-22.761719-23.542969c-3.046875-3.15625-7.140625-4.890625-11.527344-4.890625-4.457031 0-8.738281 1.875-11.75 5.148438-26.589843 28.890624-41.234374 66.46875-41.234374 105.820312s14.644531 76.929688 41.234374 105.820312c3.011719 3.273438 7.292969 5.148438 11.75 5.148438zm-.714843-206.632812c.390625-.425782 1.066406-.398438 1.460937.007812l22.761719 23.542969c.355469.371093.394531.957031.085937 1.304687-17.332031 19.507813-26.875 44.65625-26.875 70.808594s9.542969 51.300781 26.875 70.804688c.308594.347656.269532.933593-.085937 1.304687l-22.761719 23.546875c-.398437.40625-1.070312.433594-1.460937.007812-24.03125-26.113281-37.269531-60.089843-37.269531-95.664062s13.238281-69.550781 37.269531-95.664062zm0 0"/><path d="m440.320312 4.921875c-3.015624-3.128906-7.234374-4.921875-11.574218-4.921875-4.375 0-8.457032 1.730469-11.5 4.878906l-22.726563 23.507813c-5.996093 6.203125-6.046875 15.921875-.117187 22.132812 15.632812 16.367188 28.132812 35.203125 37.148437 55.976563 10.453125 24.078125 15.75 49.648437 15.75 76.003906s-5.296875 51.925781-15.746093 76c-9.019532 20.777344-21.519532 39.613281-37.152344 55.980469-5.929688 6.207031-5.878906 15.929687.117187 22.132812l22.726563 23.507813c3.042968 3.148437 7.125 4.878906 11.5 4.878906 4.339844 0 8.558594-1.792969 11.574218-4.921875 21.328126-22.105469 38.34375-47.617187 50.585938-75.820313 13.996094-32.25 21.09375-66.488281 21.09375-101.757812s-7.097656-69.507812-21.097656-101.761719c-12.238282-28.199219-29.257813-53.710937-50.582032-75.816406zm36.824219 273.367187c-11.523437 26.550782-27.542969 50.5625-47.621093 71.375-.382813.398438-1.074219.464844-1.492188.03125l-22.726562-23.507812c-.371094-.382812-.394532-.988281-.050782-1.347656 16.855469-17.652344 30.335938-37.960938 40.058594-60.367188 11.273438-25.972656 16.988281-53.550781 16.988281-81.972656s-5.714843-56-16.988281-81.972656c-9.722656-22.40625-23.203125-42.71875-40.058594-60.367188-.34375-.359375-.320312-.964844.050782-1.347656 0 0 22.695312-23.476562 22.726562-23.507812.414062-.425782 1.09375-.382813 1.492188.03125 20.078124 20.8125 36.097656 44.824218 47.621093 71.375 13.175781 30.359374 19.855469 62.585937 19.855469 95.789062s-6.679688 65.429688-19.855469 95.789062zm0 0"/><path d="m397.007812 231.753906c3.972657 1.164063 8.140626-1.117187 9.300782-5.09375 4.175781-14.261718 6.292968-29.121094 6.292968-44.160156 0-39.351562-14.644531-76.929688-41.234374-105.820312-2.960938-3.21875-7.171876-5.09375-11.550782-5.148438-4.390625-.050781-8.671875 1.726562-11.726562 4.886719l-22.761719 23.542969c-5.785156 5.984374-6.011719 15.511718-.519531 21.695312 14.890625 16.757812 23.089844 38.367188 23.089844 60.84375s-8.199219 44.085938-23.089844 60.839844c-5.492188 6.183594-5.265625 15.710937.515625 21.695312l22.761719 23.542969c3.011718 3.117187 7.203124 4.890625 11.535156 4.890625h.191406c4.382812-.054688 8.59375-1.933594 11.554688-5.148438 9.085937-9.871093 16.851562-20.8125 23.078124-32.515624 1.949219-3.660157.5625-8.199219-3.097656-10.148438-3.65625-1.941406-8.199218-.558594-10.144531 3.101562-5.628906 10.578126-12.652344 20.472657-20.875 29.402344-.183594.203125-.417969.304688-.699219.308594-.230468.003906-.5-.050781-.757812-.316406l-22.761719-23.542969c-.355469-.371094-.398437-.957031-.085937-1.304687 17.332031-19.503907 26.875-44.652344 26.875-70.804688s-9.542969-51.296875-26.875-70.804688c-.308594-.347656-.269532-.933593.085937-1.304687 0 0 22.761719-23.542969 22.761719-23.546875.390625-.402344 1.070312-.429688 1.460937-.007812 24.03125 26.113281 37.269531 60.089843 37.269531 95.664062 0 13.613281-1.914062 27.054688-5.6875 39.949219-1.164062 3.976562 1.117188 8.140625 5.09375 9.304687zm0 0"/><path d="m256 254.609375c39.761719 0 72.109375-32.347656 72.109375-72.109375s-32.347656-72.109375-72.109375-72.109375-72.109375 32.347656-72.109375 72.109375 32.347656 72.109375 72.109375 72.109375zm0-129.21875c31.492188 0 57.109375 25.617187 57.109375 57.109375s-25.621094 57.109375-57.109375 57.109375-57.109375-25.617187-57.109375-57.109375 25.621094-57.109375 57.109375-57.109375zm0 0"/></svg>