<?xml version="1.0" encoding="iso-8859-1"?>
<!-- Generator: Adobe Illustrator 19.0.0, SVG Export Plug-In . SVG Version: 6.00 Build 0)  -->
<svg version="1.1" id="Layer_1" xmlns="http://www.w3.org/2000/svg" xmlns:xlink="http://www.w3.org/1999/xlink" x="0px" y="0px"
	 viewBox="0 0 503.588 503.588" style="enable-background:new 0 0 503.588 503.588;" xml:space="preserve">
<g>
	<g>
		<path d="M492.128,76.714H11.676C5.168,76.714,0,80.238,0,86.75v27.276V354.25v27.512c0,6.512,5.168,13.632,11.676,13.632h196.84
			v15.74H59.132c-4.348,0-7.868,3.524-7.868,7.868c0,4.344,3.52,7.872,7.868,7.872h387.404c4.344,0,7.868-3.528,7.868-7.872
			s-3.524-7.868-7.868-7.868H295.072v-15.74h197.056c6.508,0,11.46-7.12,11.46-13.632V354.25V114.03V86.754
			C503.588,80.238,498.636,76.714,492.128,76.714z M257.448,379.27c-1.452,1.456-3.5,2.288-5.54,2.288
			c-2.084,0-4.096-0.832-5.552-2.288c-1.496-1.496-2.32-3.5-2.32-5.58c0-2.092,0.824-4.092,2.28-5.556
			c2.952-2.952,8.224-2.952,11.132,0c1.46,1.46,2.328,3.46,2.328,5.556C259.776,375.774,258.908,377.774,257.448,379.27z
			 M15.732,356.05V116.058h472.112V356.05H15.732z"/>
	</g>
</g>
<g>
</g>
<g>
</g>
<g>
</g>
<g>
</g>
<g>
</g>
<g>
</g>
<g>
</g>
<g>
</g>
<g>
</g>
<g>
</g>
<g>
</g>
<g>
</g>
<g>
</g>
<g>
</g>
<g>
</g>
</svg>
