<?xml version="1.0" encoding="iso-8859-1"?>
<!-- Generator: Adobe Illustrator 19.1.0, SVG Export Plug-In . SVG Version: 6.00 Build 0)  -->
<svg version="1.1" id="Capa_1" xmlns="http://www.w3.org/2000/svg" xmlns:xlink="http://www.w3.org/1999/xlink" x="0px" y="0px"
	 viewBox="0 0 328.083 328.083" style="enable-background:new 0 0 328.083 328.083;" xml:space="preserve">
<g>
	<path d="M236.572,125.497c0-40.161-32.539-72.713-72.688-72.713c-40.168,0-72.713,32.552-72.713,72.713
		c0,40.155,32.545,72.7,72.713,72.7C204.033,198.197,236.572,165.652,236.572,125.497z M111.493,125.497
		c0-28.94,23.452-52.392,52.385-52.392c28.927,0,52.366,23.452,52.366,52.392c0,28.927-23.432,52.379-52.366,52.379
		C134.951,177.876,111.493,154.43,111.493,125.497z M163.884,147.142c-12.429,0-22.507-10.064-22.507-22.487
		s10.077-22.5,22.507-22.5c12.41,0,22.481,10.077,22.481,22.5C186.359,137.078,176.294,147.142,163.884,147.142z M267.009,282.691
		h-83.234c0.231-1.17,0.366-2.365,0.366-3.605v-29.891c59.577-9.743,105.227-61.428,105.227-123.697
		C289.368,56.299,233.069,0,163.871,0C94.667,0,38.375,56.299,38.375,125.497c0,63.683,47.732,116.326,109.288,124.321v29.274
		c0,1.234,0.129,2.436,0.366,3.605H66.756c-12.539,0-22.7,10.154-22.7,22.693c0,12.539,10.161,22.693,22.7,22.693h200.26
		c12.539,0,22.693-10.154,22.693-22.693C289.709,292.852,279.548,282.691,267.009,282.691z M51.228,125.497
		c0-62.115,50.528-112.643,112.643-112.643c62.109,0,112.643,50.528,112.643,112.643c0,62.109-50.534,112.63-112.643,112.63
		C101.756,238.127,51.228,187.606,51.228,125.497z"/>
</g>
</svg>
