<svg height="512pt" viewBox="0 -35 512 512" width="512pt" xmlns="http://www.w3.org/2000/svg"><path d="m504.5 321.832031c-4.144531 0-7.5 3.359375-7.5 7.5v19.335938c0 4.140625 3.355469 7.5 7.5 7.5s7.5-3.359375 7.5-7.5v-19.335938c0-4.140625-3.355469-7.5-7.5-7.5zm0 0"/><path d="m504.5 17h-199.5v-.113281c0-9.3125-7.574219-16.886719-16.886719-16.886719h-64.226562c-9.3125 0-16.886719 7.574219-16.886719 16.886719v.113281h-199.5c-4.144531 0-7.5 3.355469-7.5 7.5v67.832031c0 4.144531 3.355469 7.5 7.5 7.5s7.5-3.355469 7.5-7.5v-60.332031h192v13.113281c0 .636719.035156 1.269531.105469 1.886719h-169.605469c-4.144531 0-7.5 3.355469-7.5 7.5v372.5h-15v-302.332031c0-4.144531-3.355469-7.5-7.5-7.5s-7.5 3.355469-7.5 7.5v309.832031c0 4.144531 3.355469 7.5 7.5 7.5h497c4.144531 0 7.5-3.355469 7.5-7.5v-53.832031c0-4.144531-3.355469-7.5-7.5-7.5s-7.5 3.355469-7.5 7.5v46.332031h-15v-372.5c0-4.144531-3.355469-7.5-7.5-7.5h-169.605469c.070313-.617188.105469-1.25.105469-1.886719v-13.113281h192v264.667969c0 4.140625 3.355469 7.5 7.5 7.5s7.5-3.359375 7.5-7.5v-272.167969c0-4.144531-3.355469-7.5-7.5-7.5zm-137.5 45v365h-222v-365zm-322 365v-365h85v365zm422-365v365h-85v-365zm-243.113281-15c-1.039063 0-1.886719-.847656-1.886719-1.886719v-28.226562c0-1.039063.847656-1.886719 1.886719-1.886719h64.226562c1.042969 0 1.886719.847656 1.886719 1.886719v28.226562c0 1.042969-.84375 1.886719-1.886719 1.886719zm0 0"/><path d="m224.652344 87.027344c9.082031 6.890625 19.910156 10.53125 31.3125 10.53125 11.433594 0 22.289062-3.660156 31.394531-10.589844 3.292969-2.511719 3.933594-7.214844 1.425781-10.511719-2.507812-3.296875-7.214844-3.9375-10.511718-1.425781-6.46875 4.925781-14.183594 7.527344-22.308594 7.527344-8.101563 0-15.796875-2.585938-22.25-7.484375-3.300782-2.503907-8.003906-1.855469-10.507813 1.445312-2.503906 3.300781-1.855469 8.003907 1.445313 10.507813zm0 0"/><path d="m212.0625 109.914062c12.742188 9.667969 27.925781 14.777344 43.902344 14.777344 16.019531 0 31.226562-5.128906 43.980468-14.839844 3.296876-2.507812 3.9375-7.214843 1.425782-10.511718-2.507813-3.292969-7.214844-3.933594-10.511719-1.425782-10.117187 7.707032-22.1875 11.777344-34.894531 11.777344-12.675782 0-24.722656-4.054687-34.835938-11.726562-3.300781-2.503906-8.003906-1.859375-10.507812 1.4375-2.503906 3.300781-1.859375 8.007812 1.441406 10.511718zm0 0"/><path d="m199.964844 132.140625c16.25 12.339844 35.613281 18.859375 56 18.859375 20.425781 0 39.816406-6.542969 56.078125-18.917969 3.296875-2.507812 3.933593-7.214843 1.425781-10.511719-2.507812-3.292968-7.214844-3.933593-10.511719-1.425781-13.625 10.375-29.875 15.855469-46.992187 15.855469-17.082032 0-33.3125-5.464844-46.929688-15.804688-3.296875-2.507812-8.003906-1.863281-10.507812 1.4375-2.507813 3.296876-1.863282 8.003907 1.4375 10.507813zm0 0"/><path d="m271 24.5h-30c-4.144531 0-7.5 3.355469-7.5 7.5s3.355469 7.5 7.5 7.5h30c4.144531 0 7.5-3.355469 7.5-7.5s-3.355469-7.5-7.5-7.5zm0 0"/><path d="m106.5 221.5c-4.144531 0-7.5 3.355469-7.5 7.5v27.332031c0 4.144531 3.355469 7.5 7.5 7.5s7.5-3.355469 7.5-7.5v-27.332031c0-4.144531-3.355469-7.5-7.5-7.5zm0 0"/><path d="m405.5 263.832031c4.144531 0 7.5-3.355469 7.5-7.5v-27.332031c0-4.144531-3.355469-7.5-7.5-7.5s-7.5 3.355469-7.5 7.5v27.332031c0 4.144531 3.355469 7.5 7.5 7.5zm0 0"/></svg>